<?xml version="1.0" encoding="utf-8"?>
<!-- Generator: Adobe Illustrator 26.3.1, SVG Export Plug-In . SVG Version: 6.00 Build 0)  -->
<svg version="1.1" xmlns="http://www.w3.org/2000/svg" xmlns:xlink="http://www.w3.org/1999/xlink" x="0px" y="0px"
	 viewBox="0 0 631.8 335.1" style="enable-background:new 0 0 631.8 335.1;" xml:space="preserve">
<style type="text/css">
	.st0{fill:#FFFFFF;}
	.st1{fill:#EE0000;}
	.st2{fill:none;}
	.st3{font-family:'IBMPlexMono';}
	.st4{font-size:12px;}
	.st5{fill:#FFFFFF;filter:url(#Adobe_OpacityMaskFilter);}
	.st6{fill:url(#SVGID_1_);}
	.st7{mask:url(#oykezef96b_00000056426412073448694200000011484013965378879395_);}
	.st8{fill:url(#SVGID_00000039114629450685703720000014923292730323161487_);}
	.st9{fill:#2071EC;}
	.st10{fill:#FFFFFF;filter:url(#Adobe_OpacityMaskFilter_00000176004050301573294410000013910003966588513722_);}
	.st11{fill:url(#SVGID_00000114779705509683128610000017847616301415914669_);}
	.st12{mask:url(#x3ynbj6s3b_00000094616225185969557800000015522265481430194356_);}
	.st13{fill:url(#SVGID_00000103251149994631329940000001600015534895780264_);}
	.st14{fill:#001D6C;}
	.st15{fill:#FFFFFF;filter:url(#Adobe_OpacityMaskFilter_00000168108221637887910630000016302128621877715843_);}
	.st16{fill:url(#SVGID_00000154389696987478941150000004033531503463775662_);}
	.st17{mask:url(#_x35_gmy6reifb_00000107558934376614654420000013799708522957893548_);}
	.st18{fill:url(#SVGID_00000068636675199029393170000003647387497678860982_);}
	.st19{fill:#F05133;}
	.st20{fill:#FFFFFF;filter:url(#Adobe_OpacityMaskFilter_00000005950192836123846240000005980164595476309911_);}
	.st21{fill:url(#SVGID_00000044877011401575343340000002822859978486260612_);}
	.st22{fill:url(#SVGID_00000016766877065693305080000009114982993131079305_);}
	.st23{mask:url(#lzig53165c_00000016759543830956223520000013427223405218747809_);}
	.st24{fill:url(#SVGID_00000168819027725235801840000009128772362032862390_);}
</style>
<g id="ansible">
	<g id="Product_Icon-Red_Hat-Ansible-RGB" transform="translate(818.035 56)">
		<path id="Path_542" d="M-593.1-40.8h-45c-12.4,0-22.5,10.1-22.5,22.5v45c0,12.4,10.1,22.5,22.5,22.5h45
			c12.4,0,22.5-10.1,22.5-22.5v-45C-570.7-30.8-580.7-40.8-593.1-40.8z"/>
		<path id="Path_543" class="st0" d="M-625.6,15.7c-0.2,0-0.4,0-0.6-0.1c-0.8-0.3-1.1-1.3-0.8-2.1l0,0l5-11.2l0,0l4.9-10.9
			c0.4-0.8,1.4-1.1,2.2-0.6c0.3,0.1,0.5,0.4,0.6,0.6l10,22.2c0.3,0.8,0,1.7-0.8,2.1c-0.5,0.2-1.1,0.2-1.6-0.2l-13.4-10l-4.3,9.4
			C-624.4,15.3-625,15.7-625.6,15.7z M-618.6,2.4l9.1,6.8l-6.1-13.5L-618.6,2.4z"/>
		<path id="Path_544" class="st1" d="M-615.6,31.9c-15.3,0-27.8-12.4-27.8-27.8s12.4-27.8,27.8-27.8s27.8,12.4,27.8,27.8l0,0
			C-587.8,19.5-600.3,31.9-615.6,31.9z M-615.6-20.5c-13.6,0-24.7,11-24.7,24.7s11,24.7,24.7,24.7s24.7-11,24.7-24.7l0,0
			C-591-9.5-602-20.5-615.6-20.5L-615.6-20.5z"/>
	</g>
	<rect x="149.8" y="111.9" class="st2" width="99.3" height="19.9"/>
	<text transform="matrix(1 0 0 1 156.221 120.7897)" class="st3 st4">Control node</text>
</g>
<g id="nodes">
	<rect x="506.3" y="32.3" class="st2" width="99.3" height="19.9"/>
	<text transform="matrix(1 0 0 1 509.1145 41.22)" class="st3 st4">Managed nodes</text>
	<g>
		<circle cx="530.8" cy="165" r="3.6"/>
		<path d="M520,179.4h79.6c4,0,7.2-3.2,7.2-7.2v-14.5c0-4-3.2-7.2-7.2-7.2H520c-4,0-7.2,3.2-7.2,7.2v14.5
			C512.8,176.2,516,179.4,520,179.4z M520,157.7h79.6v14.5H520V157.7z"/>
	</g>
	<g>
		<circle cx="530.8" cy="88.8" r="3.6"/>
		<path d="M520,103.3h79.6c4,0,7.2-3.2,7.2-7.2V81.5c0-4-3.2-7.2-7.2-7.2H520c-4,0-7.2,3.2-7.2,7.2V96
			C512.8,100,516,103.3,520,103.3z M520,81.5h79.6V96H520V81.5z"/>
	</g>
	<rect x="502.4" y="113.2" class="st2" width="114.9" height="19.9"/>
	<text transform="matrix(1 0 0 1 505.7953 122.0902)" class="st3 st4">test-ppc-podman</text>
	<rect x="502.4" y="191.7" class="st2" width="114.9" height="19.9"/>
	<text transform="matrix(1 0 0 1 505.7953 200.5608)" class="st3 st4">test-x86-podman</text>
</g>
<g id="ssh">
	<defs>
		<filter id="Adobe_OpacityMaskFilter" filterUnits="userSpaceOnUse" x="307.5" y="47.6" width="52.2" height="52.2">
			<feColorMatrix  type="matrix" values="1 0 0 0 0  0 1 0 0 0  0 0 1 0 0  0 0 0 1 0"/>
		</filter>
	</defs>
	
		<mask maskUnits="userSpaceOnUse" x="307.5" y="47.6" width="52.2" height="52.2" id="oykezef96b_00000056426412073448694200000011484013965378879395_">
		<path class="st5" d="M331.5,70.6c-2.8-5.7-0.5-12.5,5.2-15.3c5.7-2.8,12.5-0.5,15.3,5.2c1.3,2.6,1.5,5.6,0.7,8.3h3.4
			c1.8-7.9-3.1-15.8-11-17.6s-15.8,3.1-17.6,11c-0.6,2.5-0.5,5.1,0.3,7.6l-17,17v9.8h9.8l-1.4-3.3H314v-5.2L331.5,70.6z"/>
		<circle class="st0" cx="343.4" cy="63.9" r="3.3"/>
		
			<linearGradient id="SVGID_1_" gradientUnits="userSpaceOnUse" x1="318.2732" y1="107.7212" x2="337.8623" y2="127.3103" gradientTransform="matrix(1 0 0 -1 0 202)">
			<stop  offset="0.61" style="stop-color:#FFFFFF"/>
			<stop  offset="0.85" style="stop-color:#FFFFFF;stop-opacity:0"/>
		</linearGradient>
		<path class="st6" d="M337.8,74.7l-7.8,7.8l-2.3-2.3l-2.3,2.3l2.3,2.3l-2.6,2.6l-2.3-2.3l-2.3,2.3l2.3,2.3l-4.6,4.6l2.3,2.3
			L340.1,77L337.8,74.7z"/>
	</mask>
	<g class="st7">
		
			<linearGradient id="SVGID_00000119810190023004779140000012718189740478016185_" gradientUnits="userSpaceOnUse" x1="307.4935" y1="102.1767" x2="359.731" y2="154.4142" gradientTransform="matrix(1 0 0 -1 0 202)">
			<stop  offset="0.1" style="stop-color:#08BDBA"/>
			<stop  offset="0.9" style="stop-color:#0F62FE"/>
		</linearGradient>
		<path style="fill:url(#SVGID_00000119810190023004779140000012718189740478016185_);" d="M307.5,47.6h52.2v52.2h-52.2V47.6z"/>
	</g>
	<rect x="284" y="108.3" class="st2" width="99.3" height="19.9"/>
	<text transform="matrix(1 0 0 1 322.8123 117.2014)" class="st3 st4">ssh</text>
	<g>
		<g>
			<g>
				<polygon class="st9" points="369.7,68.5 482.5,82.3 480.6,75.4 502.4,87.9 478.2,94.8 481.8,88.6 368.9,74.8 				"/>
			</g>
		</g>
	</g>
	<g>
		<g>
			<g>
				<polygon class="st9" points="371,69 487,144 488.2,137 502.4,157.7 477.6,153.4 483.5,149.3 367.5,74.4 				"/>
			</g>
		</g>
	</g>
</g>
<g id="Playbooks">
	<rect x="239.9" y="305.7" class="st2" width="99.3" height="19.9"/>
	<text transform="matrix(1 0 0 1 257.1025 314.6002)" class="st3 st4">Playbooks</text>
	<g>
		<g>
			<defs>
				
					<filter id="Adobe_OpacityMaskFilter_00000111872050660726607020000002159558511450653336_" filterUnits="userSpaceOnUse" x="250.3" y="220.3" width="69.6" height="69.6">
					<feColorMatrix  type="matrix" values="1 0 0 0 0  0 1 0 0 0  0 0 1 0 0  0 0 0 1 0"/>
				</filter>
			</defs>
			
				<mask maskUnits="userSpaceOnUse" x="250.3" y="220.3" width="69.6" height="69.6" id="x3ynbj6s3b_00000094616225185969557800000015522265481430194356_">
				<path style="fill:#FFFFFF;filter:url(#Adobe_OpacityMaskFilter_00000111872050660726607020000002159558511450653336_);" d="
					M306.9,224.6h-39.2c-2.4,0-4.4,1.9-4.4,4.4v8.7H259v4.4h4.4v10.9H259v4.4h4.4v10.9H259v4.4h13.1v-4.4h-4.4v-10.9h4.4v-4.4h-4.4
					V242h4.4v-4.4h-4.4V229h39.2v52.2h-39.2v4.4h39.2c2.4,0,4.4-1.9,4.4-4.4V229C311.3,226.6,309.3,224.6,306.9,224.6z"/>
				
					<linearGradient id="SVGID_00000013181648862296588960000001503265835857127567_" gradientUnits="userSpaceOnUse" x1="265.5642" y1="-80.3046" x2="306.9114" y2="-80.3046" gradientTransform="matrix(1 0 0 -1 0 202)">
					<stop  offset="0.1" style="stop-color:#000000"/>
					<stop  offset="0.8" style="stop-color:#000000;stop-opacity:0"/>
				</linearGradient>
				<path style="fill:url(#SVGID_00000013181648862296588960000001503265835857127567_);" d="M265.6,276.9h41.3v10.9h-41.3V276.9z"
					/>
				<path class="st0" d="M263.4,272.5h4.4v13.1h-4.4V272.5z"/>
			</mask>
			<g class="st12">
				
					<linearGradient id="SVGID_00000118387813242424832530000007711762071782284932_" gradientUnits="userSpaceOnUse" x1="250.331" y1="-87.9212" x2="319.9684" y2="-18.2837" gradientTransform="matrix(1 0 0 -1 0 202)">
					<stop  offset="0.1" style="stop-color:#A56EFF"/>
					<stop  offset="0.9" style="stop-color:#0F62FE"/>
				</linearGradient>
				<path style="fill:url(#SVGID_00000118387813242424832530000007711762071782284932_);" d="M250.3,220.3H320v69.6h-69.6V220.3z"/>
			</g>
			<path class="st14" d="M280.8,237.7h17.4v4.4h-17.4V237.7z M280.8,252.9h17.4v4.4h-17.4V252.9z M280.8,268.2h17.4v4.4h-17.4V268.2
				z"/>
		</g>
	</g>
</g>
<g id="_modules">
	<rect x="154.3" y="189.1" class="st2" width="99.3" height="19.9"/>
	<text transform="matrix(1 0 0 1 175.1504 197.9455)" class="st3 st4"> Modules</text>
	<defs>
		
			<filter id="Adobe_OpacityMaskFilter_00000148662651268815268790000017058781144048119465_" filterUnits="userSpaceOnUse" x="175.8" y="133.2" width="56.4" height="56.4">
			<feColorMatrix  type="matrix" values="1 0 0 0 0  0 1 0 0 0  0 0 1 0 0  0 0 0 1 0"/>
		</filter>
	</defs>
	
		<mask maskUnits="userSpaceOnUse" x="175.8" y="133.2" width="56.4" height="56.4" id="_x35_gmy6reifb_00000107558934376614654420000013799708522957893548_">
		<path style="fill:#FFFFFF;filter:url(#Adobe_OpacityMaskFilter_00000148662651268815268790000017058781144048119465_);" d="
			M188.2,183.4l-7.7-13.3c-0.8-1.5-0.5-3.3,0.7-4.4l3.4-3c-0.1-0.9-0.1-1.8,0-2.7l-3.4-3c-1.3-1.1-1.6-3-0.7-4.4l4.2-7.2
			c0.8-1.4,2.6-2.1,4.2-1.6l4.3,1.5c0.7-0.5,1.5-1,2.3-1.4l0.9-4.4c0.3-1.6,1.8-2.8,3.5-2.8h8.3c1.7,0,3.1,1.2,3.4,2.8l0.9,4.4
			c0.8,0.4,1.6,0.9,2.3,1.4l4.3-1.5c1.6-0.5,3.3,0.1,4.2,1.6l4.2,7.2c0.8,1.5,0.5,3.3-0.7,4.4l-3.4,3c0.1,0.9,0.1,1.8,0,2.7l3.4,3
			c1.3,1.1,1.6,3,0.7,4.4l-4.2,7.2l-3.1-1.8l4.2-7.2l-4.8-4.2l0.1-0.9c0.1-1.2,0.1-2.5,0-3.7l-0.1-0.9l4.8-4.2l-4.2-7.2l-6,2
			l-0.7-0.5c-1-0.8-2.1-1.4-3.2-1.9l-0.9-0.4l-1.2-6.2h-8.3l-1.2,6.2l-0.9,0.4c-1.1,0.5-2.2,1.1-3.2,1.9l-0.7,0.6l-6-2l-4.2,7.2
			l4.8,4.2l-0.1,0.9c-0.1,1.2-0.1,2.5,0,3.7l0.1,0.9l-4.8,4.2l7.7,13.3L188.2,183.4z"/>
		
			<linearGradient id="SVGID_00000178918841317486937620000005820614664217293194_" gradientUnits="userSpaceOnUse" x1="190.048" y1="19.3848" x2="181.4565" y2="34.2663" gradientTransform="matrix(0.9995 -8.533184e-04 1.012683e-03 -0.9982 0.839 203.4608)">
			<stop  offset="0.36" style="stop-color:#000000"/>
			<stop  offset="1" style="stop-color:#000000;stop-opacity:0"/>
		</linearGradient>
		<path style="fill:url(#SVGID_00000178918841317486937620000005820614664217293194_);" d="M178.6,171.2l7.2-4.2l8.6,14.8l-7.2,4.2
			L178.6,171.2z"/>
	</mask>
	<g class="st17">
		
			<linearGradient id="SVGID_00000038409236835738186270000001261035316159312292_" gradientUnits="userSpaceOnUse" x1="175.7655" y1="12.4665" x2="232.1352" y2="68.8362" gradientTransform="matrix(1 0 0 -1 0 202)">
			<stop  offset="0.1" style="stop-color:#A56EFF"/>
			<stop  offset="0.9" style="stop-color:#0F62FE"/>
		</linearGradient>
		<path style="fill:url(#SVGID_00000038409236835738186270000001261035316159312292_);" d="M175.8,133.2h56.4v56.4h-56.4V133.2z"/>
	</g>
</g>
<g id="git">
	<g>
		<path class="st19" d="M106.5,251l-40.1-40.1c-2.3-2.3-6.1-2.3-8.4,0l-8.3,8.3l10.6,10.6c2.5-0.8,5.3-0.3,7.2,1.7
			c2,2,2.5,4.8,1.7,7.3l10.2,10.2c2.5-0.8,5.3-0.3,7.3,1.7c2.8,2.8,2.8,7.2,0,10c-2.8,2.8-7.2,2.8-10,0c-2.1-2.1-2.6-5.1-1.5-7.7
			l-9.5-9.5v25c0.7,0.3,1.3,0.8,1.9,1.3c2.8,2.8,2.8,7.2,0,10c-2.8,2.7-7.2,2.7-10,0c-2.8-2.8-2.8-7.2,0-10c0.7-0.7,1.5-1.2,2.3-1.5
			V243c-0.8-0.3-1.6-0.9-2.3-1.5c-2.1-2.1-2.6-5.1-1.5-7.7l-10.4-10.4l-27.5,27.5c-2.3,2.3-2.3,6.1,0,8.4l40.1,40.1
			c2.3,2.3,6.1,2.3,8.4,0l39.9-39.9C108.8,257.1,108.8,253.3,106.5,251z"/>
	</g>
</g>
<g id="inventory">
	<g>
		<g>
			<defs>
				
					<filter id="Adobe_OpacityMaskFilter_00000079470915258400076260000012362173991142089397_" filterUnits="userSpaceOnUse" x="121.6" y="215.6" width="84.7" height="84.7">
					<feColorMatrix  type="matrix" values="1 0 0 0 0  0 1 0 0 0  0 0 1 0 0  0 0 0 1 0"/>
				</filter>
			</defs>
			
				<mask maskUnits="userSpaceOnUse" x="121.6" y="215.6" width="84.7" height="84.7" id="lzig53165c_00000016759543830956223520000013427223405218747809_">
				<path style="fill:#FFFFFF;filter:url(#Adobe_OpacityMaskFilter_00000079470915258400076260000012362173991142089397_);" d="
					M190.4,263.2v-37c0-2.9-2.4-5.3-5.3-5.3h-42.3c-2.9,0-5.3,2.4-5.3,5.3v58.2c0,2.9,2.4,5.3,5.3,5.3h37v-5.3h-37v-15.9h37v-5.3
					h-37v-15.9h42.3v15.9H190.4z M142.8,242v-15.9h42.3V242H142.8z"/>
				
					<linearGradient id="SVGID_00000074429751477930749230000012162087133154908314_" gradientUnits="userSpaceOnUse" x1="209.2632" y1="-35.5131" x2="248.9594" y2="-35.5131" gradientTransform="matrix(1 0 0 -1 -66.5 251.5)">
					<stop  offset="1.000000e-03" style="stop-color:#000000;stop-opacity:0"/>
					<stop  offset="0.7" style="stop-color:#000000"/>
				</linearGradient>
				<path style="fill:url(#SVGID_00000074429751477930749230000012162087133154908314_);" d="M142.8,281.7h39.7v10.6h-39.7V281.7z"
					/>
				
					<linearGradient id="SVGID_00000178173270821817698860000015052745279461539209_" gradientUnits="userSpaceOnUse" x1="209.2632" y1="-14.3418" x2="248.9594" y2="-14.3418" gradientTransform="matrix(1 0 0 -1 -66.5 251.5)">
					<stop  offset="1.000000e-03" style="stop-color:#000000;stop-opacity:0"/>
					<stop  offset="0.7" style="stop-color:#000000"/>
				</linearGradient>
				<path style="fill:url(#SVGID_00000178173270821817698860000015052745279461539209_);" d="M142.8,260.5h39.7v10.6h-39.7V260.5z"
					/>
			</mask>
			<g class="st23">
				
					<linearGradient id="SVGID_00000126304736571225935260000008799653399913674403_" gradientUnits="userSpaceOnUse" x1="121.5918" y1="-98.2452" x2="206.2772" y2="-13.5598" gradientTransform="matrix(1 0 0 -1 0 202)">
					<stop  offset="0.1" style="stop-color:#08BDBA"/>
					<stop  offset="0.9" style="stop-color:#0F62FE"/>
				</linearGradient>
				<path style="fill:url(#SVGID_00000126304736571225935260000008799653399913674403_);" d="M121.6,215.6h84.7v84.7h-84.7V215.6z"
					/>
			</g>
			<circle class="st14" cx="150.7" cy="276.4" r="2.6"/>
			<circle class="st14" cx="150.7" cy="255.3" r="2.6"/>
			<circle class="st14" cx="150.7" cy="234.1" r="2.6"/>
			<path class="st14" d="M169.2,268.5H201v5.3h-31.8V268.5z M169.2,279.1H201v5.3h-31.8V279.1z M169.2,289.7h15.9v5.3h-15.9V289.7z"
				/>
		</g>
	</g>
	<rect x="119.6" y="306.8" class="st2" width="99.3" height="19.9"/>
	<text transform="matrix(1 0 0 1 136.8278 315.6868)" class="st3 st4">Inventory</text>
</g>
</svg>
