<?xml version="1.0" encoding="utf-8"?>
<!-- Generator: Adobe Illustrator 26.3.1, SVG Export Plug-In . SVG Version: 6.00 Build 0)  -->
<svg version="1.1" id="Layer_1" xmlns="http://www.w3.org/2000/svg" xmlns:xlink="http://www.w3.org/1999/xlink" x="0px" y="0px"
	 viewBox="0 0 200 195" style="enable-background:new 0 0 200 195;" xml:space="preserve">
<g>
	<circle cx="57.29" cy="69.93" r="5.37"/>
	<path d="M41.19,91.4h118.08c5.93,0,10.73-4.81,10.73-10.73V59.2c0-5.93-4.81-10.73-10.73-10.73H41.19
		c-5.93,0-10.73,4.81-10.73,10.73v21.47C30.46,86.59,35.26,91.4,41.19,91.4z M41.19,59.2h118.08v21.47H41.19V59.2z"/>
</g>
<g>
	<circle cx="56.56" cy="124.94" r="5.37"/>
	<path d="M40.46,146.41h118.08c5.93,0,10.73-4.81,10.73-10.73V114.2c0-5.93-4.81-10.73-10.73-10.73H40.46
		c-5.93,0-10.73,4.81-10.73,10.73v21.47C29.73,141.6,34.53,146.41,40.46,146.41z M40.46,114.2h118.08v21.47H40.46V114.2z"/>
</g>
</svg>
