<?xml version="1.0" encoding="utf-8"?>
<!-- Generator: Adobe Illustrator 26.3.1, SVG Export Plug-In . SVG Version: 6.00 Build 0)  -->
<svg version="1.1" id="Layer_1" xmlns="http://www.w3.org/2000/svg" xmlns:xlink="http://www.w3.org/1999/xlink" x="0px" y="0px"
	 viewBox="0 0 200 195" style="enable-background:new 0 0 200 195;" xml:space="preserve">
<style type="text/css">
	.st0{fill:#FFFFFF;filter:url(#Adobe_OpacityMaskFilter);}
	.st1{fill:url(#SVGID_1_);}
	.st2{fill:#FFFFFF;}
	.st3{mask:url(#x3ynbj6s3b_00000020379663674785701500000001559065616151205284_);}
	.st4{fill:url(#SVGID_00000127023192731122002330000004449187241436521112_);}
	.st5{fill:#001D6C;}
</style>
<g>
	<g>
		<defs>
			<filter id="Adobe_OpacityMaskFilter" filterUnits="userSpaceOnUse" x="22.68" y="28.12" width="134.88" height="134.88">
				<feColorMatrix  type="matrix" values="1 0 0 0 0  0 1 0 0 0  0 0 1 0 0  0 0 0 1 0"/>
			</filter>
		</defs>
		
			<mask maskUnits="userSpaceOnUse" x="22.68" y="28.12" width="134.88" height="134.88" id="x3ynbj6s3b_00000020379663674785701500000001559065616151205284_">
			<path class="st0" d="M132.27,36.55H56.4c-4.66,0-8.43,3.77-8.43,8.43v16.86h-8.43v8.43h8.43v21.08h-8.43v8.43h8.43v21.08h-8.43
				v8.43h25.29v-8.43H56.4V99.77h8.43v-8.43H56.4V70.27h8.43v-8.43H56.4V44.98h75.87v101.16H56.4v8.43h75.87
				c4.66,0,8.43-3.77,8.43-8.43V44.98C140.7,40.32,136.93,36.55,132.27,36.55z"/>
			
				<linearGradient id="SVGID_1_" gradientUnits="userSpaceOnUse" x1="52.1865" y1="933.7526" x2="132.2723" y2="933.7526" gradientTransform="matrix(1 0 0 -1 0 1082)">
				<stop  offset="0.1" style="stop-color:#000000"/>
				<stop  offset="0.8" style="stop-color:#000000;stop-opacity:0"/>
			</linearGradient>
			<path class="st1" d="M52.19,137.71h80.09v21.08H52.19V137.71z"/>
			<path class="st2" d="M47.97,129.28h8.43v25.29h-8.43V129.28z"/>
		</mask>
		<g class="st3">
			
				<linearGradient id="SVGID_00000032641471182175174100000010684603320392411549_" gradientUnits="userSpaceOnUse" x1="22.6813" y1="919" x2="157.5625" y2="1053.8812" gradientTransform="matrix(1 0 0 -1 0 1082)">
				<stop  offset="0.1" style="stop-color:#A56EFF"/>
				<stop  offset="0.9" style="stop-color:#0F62FE"/>
			</linearGradient>
			<path style="fill:url(#SVGID_00000032641471182175174100000010684603320392411549_);" d="M22.68,28.12h134.88V163H22.68V28.12z"
				/>
		</g>
		<path class="st5" d="M81.69,61.84h33.72v8.43H81.69V61.84z M81.69,91.34h33.72v8.43H81.69V91.34z M81.69,120.85h33.72v8.43H81.69
			V120.85z"/>
	</g>
</g>
</svg>
