<?xml version="1.0" encoding="utf-8"?>
<!-- Generator: Adobe Illustrator 26.3.1, SVG Export Plug-In . SVG Version: 6.00 Build 0)  -->
<svg version="1.1" id="Layer_1" xmlns="http://www.w3.org/2000/svg" xmlns:xlink="http://www.w3.org/1999/xlink" x="0px" y="0px"
	 viewBox="0 0 200 195" style="enable-background:new 0 0 200 195;" xml:space="preserve">
<style type="text/css">
	.st0{fill:#FFFFFF;filter:url(#Adobe_OpacityMaskFilter);}
	.st1{fill:#FFFFFF;}
	.st2{fill:url(#SVGID_1_);}
	.st3{mask:url(#oykezef96b_00000152971474202818680600000006606776310002211203_);}
	.st4{fill:url(#SVGID_00000113310922237439780130000014489054360765760144_);}
</style>
<defs>
	<filter id="Adobe_OpacityMaskFilter" filterUnits="userSpaceOnUse" x="40.38" y="37.82" width="120.18" height="120.18">
		<feColorMatrix  type="matrix" values="1 0 0 0 0  0 1 0 0 0  0 0 1 0 0  0 0 0 1 0"/>
	</filter>
</defs>
<mask maskUnits="userSpaceOnUse" x="40.38" y="37.82" width="120.18" height="120.18" id="oykezef96b_00000152971474202818680600000006606776310002211203_">
	<path class="st0" d="M95.69,90.77c-6.44-13.01-1.12-28.78,11.89-35.23c13.01-6.44,28.78-1.12,35.23,11.89
		c2.95,5.96,3.54,12.83,1.63,19.2h7.75c4.2-18.19-7.14-36.34-25.33-40.54s-36.34,7.14-40.54,25.33c-1.34,5.78-1.12,11.81,0.61,17.49
		l-39.03,39.04v22.53h22.53l-3.11-7.51H55.4v-11.91L95.69,90.77z"/>
	<circle class="st1" cx="123.01" cy="75.38" r="7.51"/>
	
		<linearGradient id="SVGID_1_" gradientUnits="userSpaceOnUse" x1="65.1818" y1="936.7561" x2="110.2497" y2="981.8241" gradientTransform="matrix(1 0 0 -1 0 1082)">
		<stop  offset="0.61" style="stop-color:#FFFFFF"/>
		<stop  offset="0.85" style="stop-color:#FFFFFF;stop-opacity:0"/>
	</linearGradient>
	<path class="st2" d="M110.18,100.11l-18,18L87,112.93l-5.31,5.31l5.18,5.18l-5.96,5.96l-5.18-5.18l-5.31,5.31l5.18,5.18
		l-10.49,10.49l5.31,5.31l45.07-45.07L110.18,100.11z"/>
</mask>
<g class="st3">
	
		<linearGradient id="SVGID_00000137818481557701376220000000588702894297252493_" gradientUnits="userSpaceOnUse" x1="40.3812" y1="924" x2="160.5625" y2="1044.1813" gradientTransform="matrix(1 0 0 -1 0 1082)">
		<stop  offset="0.1" style="stop-color:#08BDBA"/>
		<stop  offset="0.9" style="stop-color:#0F62FE"/>
	</linearGradient>
	<path style="fill:url(#SVGID_00000137818481557701376220000000588702894297252493_);" d="M40.38,37.82h120.18V158H40.38V37.82z"/>
</g>
</svg>
